# xmcd
#
# Track frame offsets: 
#        150
#        14936
#        43602
#        61885
#        89967
#        104425
#        123031
#        154969
#        172054
#        197920
#        224506
#        247221
#        263187
#
# Disc length: 3870 seconds
#
# Revision: 0
# Processed by: cddbd v1.5.2PL0 Copyright (c) Steve Scherf et al.
# Submitted via: ExactAudioCopy v1.0b3
#
DISCID=ce0f1c0d
DTITLE=Sheba The Mississippi Queen - Butter On My Rolls
DYEAR=2009
DGENRE=Blues
TTITLE0=Dance Jump
TTITLE1=Real Good Woman
TTITLE2=Big Man
TTITLE3=Can't Help Lovin' My Man
TTITLE4=Oh So Good
TTITLE5=Pourin' Rain
TTITLE6=Blues of My Soul
TTITLE7=Butter on My Rolls
TTITLE8=Tell Me Why
TTITLE9=Don't Say Goodbye
TTITLE10=Hey Girlfriend
TTITLE11=Ms Good-n-Plenty
TTITLE12=Good Good Lovin'
EXTD=
EXTT0=
EXTT1=
EXTT2=
EXTT3=
EXTT4=
EXTT5=
EXTT6=
EXTT7=
EXTT8=
EXTT9=
EXTT10=
EXTT11=
EXTT12=
PLAYORDER=
